<svg width="20" height="25" viewBox="0 0 20 25" fill="none" xmlns="http://www.w3.org/2000/svg">
<path d="M19.0716 13.2945C19.0716 12.581 18.5527 12.0535 17.8465 12.0535C17.483 12.0535 17.1671 12.1915 16.9374 12.4233L14.2803 15.0483L10.3697 19.4091L11.1399 19.7932L11.2803 15.9741V1.40624C11.2803 0.646167 10.756 0.111328 10.0011 0.111328C9.24614 0.111328 8.72185 0.646167 8.72185 1.40624V15.9741L8.86224 19.7932L9.642 19.4091L5.72183 15.0483L3.06261 12.4233C2.84043 12.1915 2.51699 12.0535 2.15348 12.0535C1.44731 12.0535 0.928406 12.581 0.928406 13.2945C0.928406 13.6369 1.0613 13.9441 1.32825 14.2207L9.04716 21.9588C9.30145 22.2249 9.64692 22.3673 10.0011 22.3673C10.3552 22.3673 10.6985 22.2249 10.9549 21.9588L18.6792 14.2207C18.9483 13.9441 19.0716 13.6369 19.0716 13.2945ZM19.0716 23.6234C19.0716 22.9022 18.556 22.3673 17.8444 22.3673H2.17481C1.45153 22.3673 0.928406 22.9022 0.928406 23.6234C0.928406 24.3445 1.45153 24.889 2.17481 24.889H17.8444C18.556 24.889 19.0716 24.3445 19.0716 23.6234Z" fill="white"/>
</svg>
