<svg width="64" height="64" viewBox="0 0 64 64" fill="none" xmlns="http://www.w3.org/2000/svg">
<g clip-path="url(#clip0_38_2)">
<path fill-rule="evenodd" clip-rule="evenodd" d="M31.5544 56.7979C45.496 56.7979 56.7979 45.496 56.7979 31.5544C56.7979 17.6128 45.496 6.31085 31.5544 6.31085C17.6128 6.31085 6.31088 17.6128 6.31088 31.5544C6.31088 45.496 17.6128 56.7979 31.5544 56.7979ZM31.5544 63.1088C48.9814 63.1088 63.1088 48.9814 63.1088 31.5544C63.1088 14.1274 48.9814 -2.93255e-05 31.5544 -2.93255e-05C14.1274 -2.93255e-05 0 14.1274 0 31.5544C0 48.9814 14.1274 63.1088 31.5544 63.1088Z" fill="#0085FF"/>
<path d="M7.11597 2.84638C5.87829 0.854359 5.27316 -1.22437 5.27316 -3.28119H1.03767C1.03767 -0.365468 1.90167 2.47965 3.51835 5.08166C5.13028 7.67603 7.45269 9.97103 10.2986 11.8683C13.1454 13.7662 16.4875 15.2478 20.1229 16.2516C23.7598 17.2559 27.6428 17.7692 31.5544 17.7692C35.466 17.7692 39.3489 17.2559 42.9859 16.2516C46.6212 15.2478 49.9633 13.7662 52.8102 11.8683C55.6561 9.97103 57.9785 7.67603 59.5904 5.08166C61.2071 2.47965 62.0711 -0.365466 62.0711 -3.28119H57.8356C57.8356 -1.22437 57.2305 0.854359 55.9928 2.84638C54.7503 4.84604 52.8891 6.72527 50.4608 8.34414C48.0334 9.96234 45.1142 11.2699 41.8585 12.1689C38.6044 13.0675 35.1016 13.5337 31.5544 13.5337C28.0072 13.5337 24.5044 13.0675 21.2503 12.1689C17.9946 11.2699 15.0753 9.96234 12.648 8.34414C10.2197 6.72527 8.3584 4.84604 7.11597 2.84638Z" fill="#0085FF"/>
<path d="M5.27316 14.904C5.27316 15.8082 5.68086 16.8889 6.83954 18.0871C8.00977 19.2972 9.83316 20.4993 12.3071 21.559C14.7671 22.6128 17.737 23.4685 21.0565 24.0575C24.3722 24.6458 27.9409 24.9509 31.5544 24.9509C35.1678 24.9509 38.7365 24.6458 42.0522 24.0575C45.3718 23.4685 48.3416 22.6128 50.8016 21.559C53.2756 20.4993 55.099 19.2972 56.2692 18.0871C57.4279 16.8889 57.8356 15.8082 57.8356 14.904H62.0711C62.0711 17.1948 61.0096 19.2778 59.314 21.0314C57.6298 22.773 55.2695 24.2529 52.4693 25.4524C49.6551 26.6578 46.3636 27.5942 42.7922 28.2278C39.2168 28.8622 35.3997 29.1864 31.5544 29.1864C27.709 29.1864 23.8919 28.8622 20.3166 28.2278C16.7451 27.5942 13.4536 26.6578 10.6394 25.4524C7.83922 24.2529 5.47891 22.773 3.79478 21.0314C2.0991 19.2778 1.03767 17.1948 1.03767 14.904H5.27316Z" fill="#0085FF"/>
<path d="M6.79843 31.3954C5.64247 30.2641 5.27316 29.28 5.27316 28.5032H1.03767C1.03767 30.7501 2.13749 32.7602 3.83589 34.4224C5.52502 36.0756 7.88516 37.4745 10.6777 38.6065C13.4861 39.745 16.771 40.6295 20.3359 41.2281C23.9047 41.8274 27.7153 42.1337 31.5544 42.1337C35.3935 42.1337 39.204 41.8274 42.7729 41.2281C46.3378 40.6295 49.6227 39.745 52.4311 38.6065C55.2236 37.4745 57.5837 36.0756 59.2729 34.4224C60.9713 32.7602 62.0711 30.7501 62.0711 28.5032H57.8356C57.8356 29.28 57.4663 30.2641 56.3103 31.3954C55.1451 32.5358 53.3215 33.6753 50.8398 34.6813C48.3741 35.6809 45.3976 36.4925 42.0715 37.0511C38.7493 37.6089 35.1741 37.8982 31.5544 37.8982C27.9346 37.8982 24.3594 37.6089 21.0373 37.0511C17.7111 36.4925 14.7347 35.6809 12.2689 34.6813C9.78723 33.6753 7.96366 32.5358 6.79843 31.3954Z" fill="#0085FF"/>
<path d="M6.79843 41.951C5.64247 40.8196 5.27316 39.8355 5.27316 39.0587H1.03767C1.03767 41.3057 2.13749 43.3157 3.83589 44.9779C5.52502 46.6311 7.88516 48.03 10.6777 49.1621C13.4861 50.3006 16.771 51.185 20.3359 51.7836C23.9047 52.3829 27.7153 52.6892 31.5544 52.6892C35.3935 52.6892 39.204 52.3829 42.7729 51.7836C46.3378 51.185 49.6227 50.3006 52.4311 49.1621C55.2236 48.03 57.5837 46.6311 59.2729 44.9779C60.9713 43.3157 62.0711 41.3057 62.0711 39.0587H57.8356C57.8356 39.8355 57.4663 40.8196 56.3103 41.951C55.1451 43.0914 53.3215 44.2308 50.8398 45.2369C48.3741 46.2365 45.3976 47.0481 42.0715 47.6066C38.7493 48.1645 35.1741 48.4537 31.5544 48.4537C27.9346 48.4537 24.3594 48.1645 21.0373 47.6066C17.7111 47.0481 14.7347 46.2365 12.2689 45.2369C9.78723 44.2308 7.96366 43.0914 6.79843 41.951Z" fill="#0085FF"/>
<path fill-rule="evenodd" clip-rule="evenodd" d="M-3.89412 27.0069V36.1018H34.3865L28.7089 42.8088C27.2056 44.5847 27.2056 47.464 28.7089 49.2399C30.2123 51.0157 32.6497 51.0157 34.153 49.2399L46.4021 34.7699C47.9054 32.994 47.9054 30.1147 46.4021 28.3388L34.153 13.8689C32.6497 12.093 30.2123 12.093 28.7089 13.8689C27.2056 15.6448 27.2056 18.5241 28.7089 20.3L34.3865 27.0069H-3.89412Z" fill="white"/>
<path fill-rule="evenodd" clip-rule="evenodd" d="M-8.55316 40.7609V22.3479H24.4414C22.2016 18.8633 22.4388 14.0649 25.1529 10.8587C28.5173 6.88435 34.3447 6.88435 37.709 10.8587L49.9581 25.3286C52.9321 28.8419 52.9321 34.2669 49.9581 37.7801L37.709 52.2501C34.3447 56.2244 28.5173 56.2244 25.1529 52.2501C22.4388 49.0438 22.2016 44.2454 24.4414 40.7609H-8.55316ZM34.3865 36.1018L28.7089 42.8088C27.2056 44.5847 27.2056 47.464 28.7089 49.2399C30.2123 51.0157 32.6497 51.0157 34.153 49.2399L46.4021 34.7699C47.9054 32.994 47.9054 30.1147 46.4021 28.3388L34.153 13.8689C32.6497 12.093 30.2123 12.093 28.7089 13.8689C27.2056 15.6448 27.2056 18.5241 28.7089 20.3L34.3865 27.0069H-3.89412V36.1018H34.3865Z" fill="#0085FF"/>
</g>
<defs>
<clipPath id="clip0_38_2">
<rect width="63.1088" height="63.1088" rx="31.5544" fill="white"/>
</clipPath>
</defs>
</svg>
