<svg width="40" height="41" viewBox="0 0 40 41" fill="none" xmlns="http://www.w3.org/2000/svg">
<path d="M19.9983 40.4921C30.9546 40.4921 40 31.4344 40 20.4939C40 9.53756 30.9387 0.495605 19.9824 0.495605C9.04544 0.495605 0 9.53756 0 20.4939C0 31.4344 9.06132 40.4921 19.9983 40.4921ZM19.9983 36.5528C11.0868 36.5528 3.95525 29.4053 3.95525 20.4939C3.95525 11.5824 11.0709 4.43499 19.9824 4.43499C28.8938 4.43499 36.0606 11.5824 36.0606 20.4939C36.0606 29.4053 28.9097 36.5528 19.9983 36.5528Z" fill="#43A5FF"/>
<path d="M12.6372 22.3281H27.347C28.5043 22.3281 29.3062 21.6463 29.3062 20.5295C29.3062 19.3971 28.5362 18.6992 27.347 18.6992H12.6372C11.4481 18.6992 10.6586 19.3971 10.6586 20.5295C10.6586 21.6463 11.4798 22.3281 12.6372 22.3281Z" fill="#43A5FF"/>
</svg>
