<svg width="40" height="41" viewBox="0 0 40 41" fill="none" xmlns="http://www.w3.org/2000/svg">
<path d="M19.9983 40.4921C30.9546 40.4921 40 31.4344 40 20.4939C40 9.53756 30.9387 0.495605 19.9824 0.495605C9.04544 0.495605 0 9.53756 0 20.4939C0 31.4344 9.06132 40.4921 19.9983 40.4921ZM19.9983 36.5528C11.0868 36.5528 3.95525 29.4053 3.95525 20.4939C3.95525 11.5824 11.0709 4.43499 19.9824 4.43499C28.8938 4.43499 36.0606 11.5824 36.0606 20.4939C36.0606 29.4053 28.9097 36.5528 19.9983 36.5528Z" fill="#676363"/>
<path d="M11.043 20.4907C11.043 21.5404 11.7849 22.2732 12.8594 22.2732H18.1679V27.5977C18.1679 28.6563 18.9168 29.4141 19.9666 29.4141C21.0356 29.4141 21.7969 28.6722 21.7969 27.5977V22.2732H27.1248C28.1833 22.2732 28.9376 21.5404 28.9376 20.4907C28.9376 19.4216 28.1833 18.6603 27.1248 18.6603H21.7969V13.3518C21.7969 12.2738 21.0356 11.5195 19.9666 11.5195C18.9168 11.5195 18.1679 12.2738 18.1679 13.3518V18.6603H12.8594C11.7849 18.6603 11.043 19.4216 11.043 20.4907Z" fill="#676363"/>
</svg>
